# MagicaVoxel @ Ephtracy

# group
o koło do voxela

# material
mtllib kolo.mtl
usemtl palette

# normals
vn -1 0 0
vn 1 0 0
vn 0 0 1
vn 0 0 -1
vn 0 -1 0
vn 0 1 0

# texcoords
vt 0.00195312 0.5
vt 0.958984 0.5
vt 0.974609 0.5
vt 0.982422 0.5
vt 0.990234 0.5
vt 0.994141 0.5

# verts
v -0.2 0 0.1
v -0.2 0 0
v -0.2 0.1 0.2
v -0.2 0.1 0.1
v -0.2 0.1 0
v -0.2 0.1 -0.1
v -0.2 0.2 0.2
v -0.2 0.2 0.1
v -0.2 0.2 0
v -0.2 0.2 -0.1
v -0.2 0.3 0.1
v -0.2 0.3 0
v -0.1 -0.2 0.3
v -0.1 -0.2 -0.2
v -0.1 -0.1 0.4
v -0.1 -0.1 0.3
v -0.1 -0.1 0.2
v -0.1 -0.1 -0.1
v -0.1 -0.1 -0.2
v -0.1 -0.1 -0.3
v -0.1 0 0.3
v -0.1 0 0.2
v -0.1 0 0.1
v -0.1 0 0
v -0.1 0 -0.1
v -0.1 0 -0.2
v -0.1 0.1 0.2
v -0.1 0.1 0.1
v -0.1 0.1 0
v -0.1 0.1 -0.1
v -0.1 0.2 0.2
v -0.1 0.2 0.1
v -0.1 0.2 0
v -0.1 0.2 -0.1
v -0.1 0.3 0.3
v -0.1 0.3 0.2
v -0.1 0.3 0.1
v -0.1 0.3 0
v -0.1 0.3 -0.1
v -0.1 0.3 -0.2
v -0.1 0.4 0.4
v -0.1 0.4 0.2
v -0.1 0.4 -0.1
v -0.1 0.4 -0.3
v -0.1 0.5 0.2
v -0.1 0.5 -0.1
v 0.2 -0.2 0.3
v 0.2 -0.2 -0.2
v 0.2 -0.1 0.4
v 0.2 -0.1 0.3
v 0.2 -0.1 0.2
v 0.2 -0.1 -0.1
v 0.2 -0.1 -0.2
v 0.2 -0.1 -0.3
v 0.2 0 0.3
v 0.2 0 0.2
v 0.2 0 0.1
v 0.2 0 0
v 0.2 0 -0.1
v 0.2 0 -0.2
v 0.2 0.1 0.2
v 0.2 0.1 0.1
v 0.2 0.1 0
v 0.2 0.1 -0.1
v 0.2 0.2 0.2
v 0.2 0.2 0.1
v 0.2 0.2 0
v 0.2 0.2 -0.1
v 0.2 0.3 0.3
v 0.2 0.3 0.2
v 0.2 0.3 0.1
v 0.2 0.3 0
v 0.2 0.3 -0.1
v 0.2 0.3 -0.2
v 0.2 0.4 0.4
v 0.2 0.4 0.2
v 0.2 0.4 -0.1
v 0.2 0.4 -0.3
v 0.2 0.5 0.2
v 0.2 0.5 -0.1
v 0.3 0 0.1
v 0.3 0 0
v 0.3 0.1 0.2
v 0.3 0.1 0.1
v 0.3 0.1 0
v 0.3 0.1 -0.1
v 0.3 0.2 0.2
v 0.3 0.2 0.1
v 0.3 0.2 0
v 0.3 0.2 -0.1
v 0.3 0.3 0.1
v 0.3 0.3 0
v -0.1 -0.1 0.4
v -0.1 0.4 0.4
v 0.2 -0.1 0.4
v 0.2 0.4 0.4
v -0.1 -0.2 0.3
v -0.1 -0.1 0.3
v 0.2 -0.2 0.3
v 0.2 -0.1 0.3
v -0.2 0.1 0.2
v -0.2 0.2 0.2
v -0.1 0.1 0.2
v -0.1 0.2 0.2
v -0.1 0.4 0.2
v -0.1 0.5 0.2
v 0.2 0.1 0.2
v 0.2 0.2 0.2
v 0.2 0.4 0.2
v 0.2 0.5 0.2
v 0.3 0.1 0.2
v 0.3 0.2 0.2
v -0.2 0 0.1
v -0.2 0.1 0.1
v -0.2 0.2 0.1
v -0.2 0.3 0.1
v -0.1 0 0.1
v -0.1 0.1 0.1
v -0.1 0.2 0.1
v -0.1 0.3 0.1
v 0.2 0 0.1
v 0.2 0.1 0.1
v 0.2 0.2 0.1
v 0.2 0.3 0.1
v 0.3 0 0.1
v 0.3 0.1 0.1
v 0.3 0.2 0.1
v 0.3 0.3 0.1
v -0.2 0 0
v -0.2 0.1 0
v -0.2 0.2 0
v -0.2 0.3 0
v -0.1 0 0
v -0.1 0.1 0
v -0.1 0.2 0
v -0.1 0.3 0
v 0.2 0 0
v 0.2 0.1 0
v 0.2 0.2 0
v 0.2 0.3 0
v 0.3 0 0
v 0.3 0.1 0
v 0.3 0.2 0
v 0.3 0.3 0
v -0.2 0.1 -0.1
v -0.2 0.2 -0.1
v -0.1 0.1 -0.1
v -0.1 0.2 -0.1
v -0.1 0.4 -0.1
v -0.1 0.5 -0.1
v 0.2 0.1 -0.1
v 0.2 0.2 -0.1
v 0.2 0.4 -0.1
v 0.2 0.5 -0.1
v 0.3 0.1 -0.1
v 0.3 0.2 -0.1
v -0.1 -0.2 -0.2
v -0.1 -0.1 -0.2
v 0.2 -0.2 -0.2
v 0.2 -0.1 -0.2
v -0.1 -0.1 -0.3
v -0.1 0.4 -0.3
v 0.2 -0.1 -0.3
v 0.2 0.4 -0.3
v -0.1 -0.2 0.3
v 0.2 -0.2 0.3
v -0.1 -0.2 -0.2
v 0.2 -0.2 -0.2
v -0.1 -0.1 0.4
v 0.2 -0.1 0.4
v -0.1 -0.1 0.3
v 0.2 -0.1 0.3
v -0.1 -0.1 -0.2
v 0.2 -0.1 -0.2
v -0.1 -0.1 -0.3
v 0.2 -0.1 -0.3
v -0.2 0 0.1
v -0.1 0 0.1
v 0.2 0 0.1
v 0.3 0 0.1
v -0.2 0 0
v -0.1 0 0
v 0.2 0 0
v 0.3 0 0
v -0.2 0.1 0.2
v -0.1 0.1 0.2
v 0.2 0.1 0.2
v 0.3 0.1 0.2
v -0.2 0.1 0.1
v -0.1 0.1 0.1
v 0.2 0.1 0.1
v 0.3 0.1 0.1
v -0.2 0.1 0
v -0.1 0.1 0
v 0.2 0.1 0
v 0.3 0.1 0
v -0.2 0.1 -0.1
v -0.1 0.1 -0.1
v 0.2 0.1 -0.1
v 0.3 0.1 -0.1
v -0.2 0.2 0.2
v -0.1 0.2 0.2
v 0.2 0.2 0.2
v 0.3 0.2 0.2
v -0.2 0.2 0.1
v -0.1 0.2 0.1
v 0.2 0.2 0.1
v 0.3 0.2 0.1
v -0.2 0.2 0
v -0.1 0.2 0
v 0.2 0.2 0
v 0.3 0.2 0
v -0.2 0.2 -0.1
v -0.1 0.2 -0.1
v 0.2 0.2 -0.1
v 0.3 0.2 -0.1
v -0.2 0.3 0.1
v -0.1 0.3 0.1
v 0.2 0.3 0.1
v 0.3 0.3 0.1
v -0.2 0.3 0
v -0.1 0.3 0
v 0.2 0.3 0
v 0.3 0.3 0
v -0.1 0.4 0.4
v 0.2 0.4 0.4
v -0.1 0.4 0.2
v 0.2 0.4 0.2
v -0.1 0.4 -0.1
v 0.2 0.4 -0.1
v -0.1 0.4 -0.3
v 0.2 0.4 -0.3
v -0.1 0.5 0.2
v 0.2 0.5 0.2
v -0.1 0.5 -0.1
v 0.2 0.5 -0.1

# faces
f 4/5/1 2/5/1 1/5/1
f 5/5/1 2/5/1 4/5/1
f 7/5/1 4/5/1 3/5/1
f 8/1/1 5/1/1 4/1/1
f 8/5/1 4/5/1 7/5/1
f 9/5/1 6/5/1 5/5/1
f 9/1/1 5/1/1 8/1/1
f 10/5/1 6/5/1 9/5/1
f 11/5/1 9/5/1 8/5/1
f 12/5/1 9/5/1 11/5/1
f 16/6/1 14/6/1 13/6/1
f 17/6/1 14/6/1 16/6/1
f 18/6/1 14/6/1 17/6/1
f 19/6/1 14/6/1 18/6/1
f 21/6/1 16/6/1 15/6/1
f 21/6/1 17/6/1 16/6/1
f 22/3/1 18/3/1 17/3/1
f 22/6/1 17/6/1 21/6/1
f 23/3/1 18/3/1 22/3/1
f 24/3/1 18/3/1 23/3/1
f 25/6/1 20/6/1 19/6/1
f 25/3/1 18/3/1 24/3/1
f 25/6/1 19/6/1 18/6/1
f 26/6/1 20/6/1 25/6/1
f 27/4/1 23/4/1 22/4/1
f 27/3/1 22/3/1 21/3/1
f 28/4/1 23/4/1 27/4/1
f 29/4/1 25/4/1 24/4/1
f 30/3/1 26/3/1 25/3/1
f 30/4/1 25/4/1 29/4/1
f 31/3/1 27/3/1 21/3/1
f 34/3/1 26/3/1 30/3/1
f 35/6/1 21/6/1 15/6/1
f 35/3/1 31/3/1 21/3/1
f 36/4/1 32/4/1 31/4/1
f 36/3/1 31/3/1 35/3/1
f 37/4/1 32/4/1 36/4/1
f 38/4/1 34/4/1 33/4/1
f 39/3/1 26/3/1 34/3/1
f 39/4/1 34/4/1 38/4/1
f 40/6/1 20/6/1 26/6/1
f 40/3/1 26/3/1 39/3/1
f 41/6/1 35/6/1 15/6/1
f 41/6/1 36/6/1 35/6/1
f 42/3/1 39/3/1 38/3/1
f 42/6/1 36/6/1 41/6/1
f 42/3/1 37/3/1 36/3/1
f 42/3/1 38/3/1 37/3/1
f 43/6/1 40/6/1 39/6/1
f 43/3/1 39/3/1 42/3/1
f 44/6/1 20/6/1 40/6/1
f 44/6/1 40/6/1 43/6/1
f 45/6/1 43/6/1 42/6/1
f 46/6/1 43/6/1 45/6/1
f 47/6/2 48/6/2 50/6/2
f 50/6/2 48/6/2 51/6/2
f 51/6/2 48/6/2 52/6/2
f 52/6/2 48/6/2 53/6/2
f 49/6/2 50/6/2 55/6/2
f 50/6/2 51/6/2 55/6/2
f 51/3/2 52/3/2 56/3/2
f 55/6/2 51/6/2 56/6/2
f 56/3/2 52/3/2 57/3/2
f 57/3/2 52/3/2 58/3/2
f 53/6/2 54/6/2 59/6/2
f 58/3/2 52/3/2 59/3/2
f 52/6/2 53/6/2 59/6/2
f 59/6/2 54/6/2 60/6/2
f 56/4/2 57/4/2 61/4/2
f 55/3/2 56/3/2 61/3/2
f 61/4/2 57/4/2 62/4/2
f 58/4/2 59/4/2 63/4/2
f 59/3/2 60/3/2 64/3/2
f 63/4/2 59/4/2 64/4/2
f 55/3/2 61/3/2 65/3/2
f 64/3/2 60/3/2 68/3/2
f 49/6/2 55/6/2 69/6/2
f 55/3/2 65/3/2 69/3/2
f 65/4/2 66/4/2 70/4/2
f 69/3/2 65/3/2 70/3/2
f 70/4/2 66/4/2 71/4/2
f 67/4/2 68/4/2 72/4/2
f 68/3/2 60/3/2 73/3/2
f 72/4/2 68/4/2 73/4/2
f 60/6/2 54/6/2 74/6/2
f 73/3/2 60/3/2 74/3/2
f 49/6/2 69/6/2 75/6/2
f 69/6/2 70/6/2 75/6/2
f 72/3/2 73/3/2 76/3/2
f 75/6/2 70/6/2 76/6/2
f 70/3/2 71/3/2 76/3/2
f 71/3/2 72/3/2 76/3/2
f 73/6/2 74/6/2 77/6/2
f 76/3/2 73/3/2 77/3/2
f 74/6/2 54/6/2 78/6/2
f 77/6/2 74/6/2 78/6/2
f 76/6/2 77/6/2 79/6/2
f 79/6/2 77/6/2 80/6/2
f 81/5/2 82/5/2 84/5/2
f 84/5/2 82/5/2 85/5/2
f 83/5/2 84/5/2 87/5/2
f 84/2/2 85/2/2 88/2/2
f 87/5/2 84/5/2 88/5/2
f 85/5/2 86/5/2 89/5/2
f 88/2/2 85/2/2 89/2/2
f 89/5/2 86/5/2 90/5/2
f 88/5/2 89/5/2 91/5/2
f 91/5/2 89/5/2 92/5/2
f 95/6/3 94/6/3 93/6/3
f 96/6/3 94/6/3 95/6/3
f 99/6/3 98/6/3 97/6/3
f 100/6/3 98/6/3 99/6/3
f 103/5/3 102/5/3 101/5/3
f 104/5/3 102/5/3 103/5/3
f 109/6/3 106/6/3 105/6/3
f 110/6/3 106/6/3 109/6/3
f 111/5/3 108/5/3 107/5/3
f 112/5/3 108/5/3 111/5/3
f 117/5/3 114/5/3 113/5/3
f 118/5/3 114/5/3 117/5/3
f 119/5/3 116/5/3 115/5/3
f 120/5/3 116/5/3 119/5/3
f 125/5/3 122/5/3 121/5/3
f 126/5/3 122/5/3 125/5/3
f 127/5/3 124/5/3 123/5/3
f 128/5/3 124/5/3 127/5/3
f 129/5/4 130/5/4 133/5/4
f 133/5/4 130/5/4 134/5/4
f 131/5/4 132/5/4 135/5/4
f 135/5/4 132/5/4 136/5/4
f 137/5/4 138/5/4 141/5/4
f 141/5/4 138/5/4 142/5/4
f 139/5/4 140/5/4 143/5/4
f 143/5/4 140/5/4 144/5/4
f 145/5/4 146/5/4 147/5/4
f 147/5/4 146/5/4 148/5/4
f 149/6/4 150/6/4 153/6/4
f 153/6/4 150/6/4 154/6/4
f 151/5/4 152/5/4 155/5/4
f 155/5/4 152/5/4 156/5/4
f 157/6/4 158/6/4 159/6/4
f 159/6/4 158/6/4 160/6/4
f 161/6/4 162/6/4 163/6/4
f 163/6/4 162/6/4 164/6/4
f 167/6/5 166/6/5 165/6/5
f 168/6/5 166/6/5 167/6/5
f 171/6/5 170/6/5 169/6/5
f 172/6/5 170/6/5 171/6/5
f 175/6/5 174/6/5 173/6/5
f 176/6/5 174/6/5 175/6/5
f 181/5/5 178/5/5 177/5/5
f 182/5/5 178/5/5 181/5/5
f 183/5/5 180/5/5 179/5/5
f 184/5/5 180/5/5 183/5/5
f 189/5/5 186/5/5 185/5/5
f 190/5/5 186/5/5 189/5/5
f 191/5/5 188/5/5 187/5/5
f 192/5/5 188/5/5 191/5/5
f 197/5/5 194/5/5 193/5/5
f 198/5/5 194/5/5 197/5/5
f 199/5/5 196/5/5 195/5/5
f 200/5/5 196/5/5 199/5/5
f 201/5/6 202/5/6 205/5/6
f 205/5/6 202/5/6 206/5/6
f 203/5/6 204/5/6 207/5/6
f 207/5/6 204/5/6 208/5/6
f 209/5/6 210/5/6 213/5/6
f 213/5/6 210/5/6 214/5/6
f 211/5/6 212/5/6 215/5/6
f 215/5/6 212/5/6 216/5/6
f 217/5/6 218/5/6 221/5/6
f 221/5/6 218/5/6 222/5/6
f 219/5/6 220/5/6 223/5/6
f 223/5/6 220/5/6 224/5/6
f 225/6/6 226/6/6 227/6/6
f 227/6/6 226/6/6 228/6/6
f 229/6/6 230/6/6 231/6/6
f 231/6/6 230/6/6 232/6/6
f 233/6/6 234/6/6 235/6/6
f 235/6/6 234/6/6 236/6/6
